<svg version="1.1" xmlns="http://www.w3.org/2000/svg" xmlns:xlink="http://www.w3.org/1999/xlink" width="958" height="963"><defs><clipPath id="WaArsTfGOkSI"><path fill="none" stroke="none" d=" M 0 0 L 958 0 L 958 963 L 0 963 L 0 0 Z"/></clipPath></defs><g transform="scale(1,1)" clip-path="url(#WaArsTfGOkSI)"><g><rect fill="rgb(255,255,255)" stroke="none" x="0" y="0" width="958" height="963" fill-opacity="1"/><path fill="none" stroke="rgb(64,64,64)" paint-order="fill stroke markers" d=" M 797.3009537162296 555.3651506491643 C 797.3009537162296 389.9257991915023 663.1858606444184 255.81070611969176 497.74650918675565 255.81070611969176 C 332.30715772909286 255.81070611969176 198.19206465728172 389.9257991915023 198.19206465728166 555.3651506491643" stroke-opacity="0.6980392156862745" stroke-linecap="round" stroke-linejoin="round" stroke-miterlimit="10" stroke-width="0.5"/><path fill="none" stroke="rgb(0,51,153)" paint-order="fill stroke markers" d=" M 797.3009537162296 555.3651506491644 C 614.0239738852057 440.81703825477507 381.46904448830537 440.81703825477507 198.19206465728143 555.3651506491644" stroke-opacity="0.6980392156862745" stroke-linecap="round" stroke-linejoin="round" stroke-miterlimit="10" stroke-width="0.5"/><path fill="none" stroke="rgb(204,0,0)" paint-order="fill stroke markers" d=" M 261.37312253761775 371.35295724508967 C 324.0040441513305 434.2524713196925 409.12180813775865 469.5953545207492 497.8854259465964 469.5583884442604 C 586.6490437554343 469.5214223677715 671.737340762189 434.1076559554977 734.3158509918748 371.15599775305384" stroke-opacity="0.6980392156862745" stroke-linecap="round" stroke-linejoin="round" stroke-miterlimit="10" stroke-width="0.5"/><path fill="none" stroke="rgb(204,0,0)" paint-order="fill stroke markers" d=" M 292.72069082507585 336.9680832638976 C 409.163042634588 442.2460573412858 586.4426134348347 442.13523209823677 702.753246515829 336.71175391112826" stroke-opacity="0.6980392156862745" stroke-linecap="round" stroke-linejoin="round" stroke-miterlimit="10" stroke-width="0.5"/><path fill="none" stroke="rgb(0,100,0)" paint-order="fill stroke markers" d=" M 353.41533300062076 404.78044512729093 C 330.8533660127554 383.03732888284685 303.96421260608 366.2907869815398 274.49921328371465 355.6315528010772" stroke-opacity="0.6980392156862745" stroke-linecap="round" stroke-linejoin="round" stroke-miterlimit="10"/><path fill="none" stroke="rgb(0,100,0)" paint-order="fill stroke markers" d=" M 353.41533300062076 404.780445127291 C 394.6561101700261 454.2524709232816 465.98255091217436 465.9048102524444 520.823180926618 432.12925196668664" stroke-opacity="0.6980392156862745" stroke-linecap="round" stroke-linejoin="round" stroke-miterlimit="10"/><path fill="none" stroke="rgb(0,100,0)" paint-order="fill stroke markers" d=" M 608.670863501646 426.3279899098451 C 579.6309015801191 417.746788151625 548.4825119507137 419.8037572780952 520.8231809266177 432.12925196668664" stroke-opacity="0.6980392156862745" stroke-linecap="round" stroke-linejoin="round" stroke-miterlimit="10"/><path fill="none" stroke="rgb(0,100,0)" paint-order="fill stroke markers" d=" M 608.6708635016461 426.3279899098451 C 638.1703219527867 433.54051292863585 668.5857263883443 418.50761188577405 680.7722633509616 390.69166584639015" stroke-opacity="0.6980392156862745" stroke-linecap="round" stroke-linejoin="round" stroke-miterlimit="10"/><path fill="none" stroke="rgb(0,100,0)" paint-order="fill stroke markers" d=" M 723.1035682913298 358.0150527289991 C 704.5275450654947 361.39476734219625 688.7459276807931 373.57700000365173 680.7722633509617 390.69166584639015" stroke-opacity="0.6980392156862745" stroke-linecap="round" stroke-linejoin="round" stroke-miterlimit="10"/><path fill="none" stroke="rgb(0,51,153)" paint-order="fill stroke markers" d=" M 198.19206465728166 555.3651506491643 L 797.3009537162296 555.3651506491643" stroke-opacity="0.6980392156862745" stroke-linecap="round" stroke-linejoin="round" stroke-miterlimit="10" stroke-width="0.5"/><path fill="none" stroke="rgb(102,0,204)" paint-order="fill stroke markers" d=" M 497.74650918675565 555.3651506491643 L 497.74650918675565 255.81070611969176" stroke-opacity="0.6980392156862745" stroke-linejoin="round" stroke-miterlimit="10" stroke-width="0.5" stroke-dasharray="4.5,4"/><g transform="scale(11,11)"><g transform="translate(68.6541378919891,33.23945454545455)"><path fill="rgb(204,0,0)" stroke="none" paint-order="stroke fill markers" d=" M 0.154 -0.306 L 0.154 -0.306 L 0.167 -0.316 Q 0.10300000000000001 -0.353 0.10200000000000001 -0.422 Q 0.10200000000000001 -0.498 0.17500000000000002 -0.557 Q 0.218 -0.593 0.277 -0.609 Q 0.27 -0.637 0.27 -0.648 Q 0.27 -0.6970000000000001 0.28800000000000003 -0.6970000000000001 Q 0.3 -0.6970000000000001 0.3 -0.684 L 0.295 -0.648 L 0.295 -0.647 Q 0.295 -0.629 0.3 -0.614 Q 0.326 -0.619 0.363 -0.619 Q 0.437 -0.619 0.445 -0.599 L 0.445 -0.598 L 0.445 -0.597 Q 0.446 -0.595 0.446 -0.592 Q 0.446 -0.561 0.357 -0.561 Q 0.314 -0.561 0.296 -0.579 Q 0.295 -0.581 0.293 -0.583 Q 0.219 -0.546 0.191 -0.466 Q 0.182 -0.439 0.182 -0.41300000000000003 Q 0.182 -0.365 0.212 -0.335 Q 0.249 -0.34700000000000003 0.296 -0.34700000000000003 Q 0.376 -0.34700000000000003 0.378 -0.32 Q 0.378 -0.289 0.28500000000000003 -0.289 Q 0.234 -0.289 0.197 -0.302 Q 0.121 -0.264 0.08700000000000001 -0.184 Q 0.074 -0.154 0.074 -0.132 Q 0.074 -0.073 0.149 -0.043000000000000003 L 0.209 -0.019 Q 0.23 -0.012 0.27 0.004 Q 0.314 0.021 0.331 0.027 Q 0.379 0.049 0.379 0.098 Q 0.379 0.147 0.339 0.181 Q 0.32 0.197 0.297 0.202 Q 0.28600000000000003 0.20500000000000002 0.275 0.20500000000000002 Q 0.221 0.20500000000000002 0.179 0.17300000000000001 Q 0.166 0.163 0.166 0.157 Q 0.166 0.146 0.176 0.146 Q 0.18 0.146 0.187 0.151 Q 0.231 0.183 0.275 0.183 Q 0.307 0.183 0.32 0.149 Q 0.324 0.139 0.324 0.13 Q 0.324 0.10400000000000001 0.297 0.091 Q 0.301 0.093 0.289 0.08700000000000001 L 0.168 0.04 Q 0.095 0.013000000000000001 0.075 -0.003 Q 0.066 -0.01 0.052000000000000005 -0.025 Q 0.036000000000000004 -0.049 0.035 -0.05 Q 0.023 -0.075 0.023 -0.10400000000000001 Q 0.023 -0.166 0.073 -0.231 Q 0.105 -0.274 0.154 -0.306 M 0.316 -0.592 Q 0.327 -0.583 0.358 -0.583 Q 0.399 -0.583 0.42 -0.591 Q 0.398 -0.597 0.364 -0.597 Q 0.332 -0.597 0.316 -0.592 M 0.23800000000000002 -0.319 Q 0.256 -0.311 0.28800000000000003 -0.311 Q 0.336 -0.311 0.352 -0.319 Q 0.33 -0.325 0.295 -0.325 Q 0.261 -0.325 0.23800000000000002 -0.319 Z"/></g><g transform="translate(69.0921378919891,33.46845454545455) scale(0.7,0.7)"><path fill="rgb(204,0,0)" stroke="none" paint-order="stroke fill markers" d=" M 0.294 -0.64 L 0.294 -0.079 Q 0.294 -0.049 0.306 -0.041 Q 0.323 -0.031 0.387 -0.031 L 0.419 -0.031 L 0.419 0 Q 0.384 -0.003 0.257 -0.003 Q 0.13 -0.003 0.095 0 L 0.095 -0.031 L 0.127 -0.031 Q 0.20400000000000001 -0.031 0.215 -0.049 L 0.216 -0.05 Q 0.22 -0.058 0.22 -0.079 L 0.22 -0.597 Q 0.168 -0.5710000000000001 0.089 -0.5710000000000001 L 0.089 -0.602 Q 0.209 -0.602 0.271 -0.666 Q 0.29 -0.666 0.293 -0.659 L 0.293 -0.659 L 0.293 -0.658 Q 0.294 -0.655 0.294 -0.64 Z"/></g><rect fill="rgb(204,0,0)" stroke="none" x="68.6541378919891" y="33.64596304545455" width="0.788" height="0.039999"/><g transform="translate(68.6541378919891,34.60191354545456)"><path fill="rgb(204,0,0)" stroke="none" paint-order="stroke fill markers" d=" M 0.154 -0.306 L 0.154 -0.306 L 0.167 -0.316 Q 0.10300000000000001 -0.353 0.10200000000000001 -0.422 Q 0.10200000000000001 -0.498 0.17500000000000002 -0.557 Q 0.218 -0.593 0.277 -0.609 Q 0.27 -0.637 0.27 -0.648 Q 0.27 -0.6970000000000001 0.28800000000000003 -0.6970000000000001 Q 0.3 -0.6970000000000001 0.3 -0.684 L 0.295 -0.648 L 0.295 -0.647 Q 0.295 -0.629 0.3 -0.614 Q 0.326 -0.619 0.363 -0.619 Q 0.437 -0.619 0.445 -0.599 L 0.445 -0.598 L 0.445 -0.597 Q 0.446 -0.595 0.446 -0.592 Q 0.446 -0.561 0.357 -0.561 Q 0.314 -0.561 0.296 -0.579 Q 0.295 -0.581 0.293 -0.583 Q 0.219 -0.546 0.191 -0.466 Q 0.182 -0.439 0.182 -0.41300000000000003 Q 0.182 -0.365 0.212 -0.335 Q 0.249 -0.34700000000000003 0.296 -0.34700000000000003 Q 0.376 -0.34700000000000003 0.378 -0.32 Q 0.378 -0.289 0.28500000000000003 -0.289 Q 0.234 -0.289 0.197 -0.302 Q 0.121 -0.264 0.08700000000000001 -0.184 Q 0.074 -0.154 0.074 -0.132 Q 0.074 -0.073 0.149 -0.043000000000000003 L 0.209 -0.019 Q 0.23 -0.012 0.27 0.004 Q 0.314 0.021 0.331 0.027 Q 0.379 0.049 0.379 0.098 Q 0.379 0.147 0.339 0.181 Q 0.32 0.197 0.297 0.202 Q 0.28600000000000003 0.20500000000000002 0.275 0.20500000000000002 Q 0.221 0.20500000000000002 0.179 0.17300000000000001 Q 0.166 0.163 0.166 0.157 Q 0.166 0.146 0.176 0.146 Q 0.18 0.146 0.187 0.151 Q 0.231 0.183 0.275 0.183 Q 0.307 0.183 0.32 0.149 Q 0.324 0.139 0.324 0.13 Q 0.324 0.10400000000000001 0.297 0.091 Q 0.301 0.093 0.289 0.08700000000000001 L 0.168 0.04 Q 0.095 0.013000000000000001 0.075 -0.003 Q 0.066 -0.01 0.052000000000000005 -0.025 Q 0.036000000000000004 -0.049 0.035 -0.05 Q 0.023 -0.075 0.023 -0.10400000000000001 Q 0.023 -0.166 0.073 -0.231 Q 0.105 -0.274 0.154 -0.306 M 0.316 -0.592 Q 0.327 -0.583 0.358 -0.583 Q 0.399 -0.583 0.42 -0.591 Q 0.398 -0.597 0.364 -0.597 Q 0.332 -0.597 0.316 -0.592 M 0.23800000000000002 -0.319 Q 0.256 -0.311 0.28800000000000003 -0.311 Q 0.336 -0.311 0.352 -0.319 Q 0.33 -0.325 0.295 -0.325 Q 0.261 -0.325 0.23800000000000002 -0.319 Z"/></g><g transform="translate(69.0921378919891,34.83091354545456) scale(0.7,0.7)"><path fill="rgb(204,0,0)" stroke="none" paint-order="stroke fill markers" d=" M 0.46 -0.32 Q 0.46 -0.17400000000000002 0.423 -0.094 Q 0.364 0.018000000000000002 0.249 0.022 Q 0.158 0.022 0.10300000000000001 -0.05 Q 0.092 -0.063 0.084 -0.079 Q 0.039 -0.162 0.039 -0.32 Q 0.039 -0.467 0.076 -0.547 Q 0.126 -0.659 0.23800000000000002 -0.666 L 0.25 -0.666 Q 0.339 -0.666 0.395 -0.595 L 0.395 -0.594 Q 0.40900000000000003 -0.5760000000000001 0.42 -0.554 Q 0.46 -0.46900000000000003 0.46 -0.32 M 0.249 0 L 0.249 0 Q 0.312 0 0.34600000000000003 -0.061 Q 0.36 -0.088 0.366 -0.125 Q 0.377 -0.189 0.377 -0.332 Q 0.377 -0.47100000000000003 0.367 -0.527 Q 0.34900000000000003 -0.622 0.275 -0.641 Q 0.262 -0.644 0.249 -0.644 Q 0.179 -0.644 0.147 -0.5740000000000001 Q 0.136 -0.55 0.13 -0.516 Q 0.122 -0.462 0.122 -0.332 Q 0.122 -0.181 0.133 -0.121 Q 0.151 -0.025 0.221 -0.004 Q 0.23500000000000001 0 0.249 0 Z"/></g><g transform="translate(69.82859901630141,33.91596254545455)"><path fill="rgb(204,0,0)" stroke="none" paint-order="stroke fill markers" d=" M 0.687 -0.327 L 0.09 -0.327 Q 0.058 -0.327 0.056 -0.34700000000000003 Q 0.056 -0.367 0.089 -0.367 L 0.6880000000000001 -0.367 Q 0.72 -0.367 0.721 -0.34700000000000003 Q 0.721 -0.327 0.687 -0.327 M 0.6880000000000001 -0.133 L 0.089 -0.133 Q 0.057 -0.133 0.056 -0.153 Q 0.056 -0.17300000000000001 0.09 -0.17300000000000001 L 0.687 -0.17300000000000001 Q 0.719 -0.17300000000000001 0.721 -0.153 Q 0.721 -0.133 0.6880000000000001 -0.133 Z"/></g><g transform="translate(70.88437679407919,33.91596254545455)"><path fill="rgb(204,0,0)" stroke="none" paint-order="stroke fill markers" d=" M 0.028 0.169 L 0.18 -0.437 Q 0.209 -0.551 0.292 -0.631 Q 0.37 -0.705 0.456 -0.705 Q 0.539 -0.705 0.5750000000000001 -0.639 Q 0.59 -0.611 0.59 -0.577 Q 0.59 -0.502 0.528 -0.439 Q 0.507 -0.418 0.482 -0.403 Q 0.549 -0.357 0.549 -0.264 Q 0.549 -0.161 0.46900000000000003 -0.076 Q 0.392 0.005 0.296 0.012 L 0.28300000000000003 0.012 Q 0.186 0.012 0.14100000000000001 -0.063 Q 0.129 -0.083 0.123 -0.105 L 0.048 0.188 L 0.047 0.19 Q 0.043000000000000003 0.194 0.037 0.194 Q 0.025 0.194 0.025 0.184 Q 0.025 0.181 0.028 0.169 M 0.328 -0.401 Q 0.34500000000000003 -0.395 0.371 -0.395 Q 0.401 -0.395 0.419 -0.403 Q 0.406 -0.40900000000000003 0.379 -0.40900000000000003 Q 0.34400000000000003 -0.40900000000000003 0.328 -0.401 M 0.45 -0.421 Q 0.511 -0.467 0.525 -0.577 L 0.525 -0.578 L 0.525 -0.58 Q 0.527 -0.594 0.527 -0.602 Q 0.527 -0.673 0.46900000000000003 -0.682 Q 0.462 -0.683 0.455 -0.683 Q 0.372 -0.683 0.299 -0.606 Q 0.23 -0.534 0.2 -0.41600000000000004 L 0.154 -0.231 Q 0.14100000000000001 -0.179 0.14100000000000001 -0.156 Q 0.14100000000000001 -0.074 0.2 -0.034 Q 0.234 -0.01 0.281 -0.01 Q 0.359 -0.01 0.41500000000000004 -0.094 Q 0.422 -0.10300000000000001 0.427 -0.113 Q 0.462 -0.179 0.47400000000000003 -0.274 Q 0.47600000000000003 -0.291 0.47600000000000003 -0.302 Q 0.47600000000000003 -0.355 0.446 -0.386 Q 0.41400000000000003 -0.373 0.371 -0.373 Q 0.303 -0.373 0.303 -0.399 Q 0.303 -0.431 0.381 -0.431 Q 0.422 -0.431 0.45 -0.421 Z"/></g></g><g transform="scale(11,11)"><g transform="translate(64.6541378919891,27.875818181818182)"><path fill="rgb(204,0,0)" stroke="none" paint-order="stroke fill markers" d=" M 0.154 -0.306 L 0.154 -0.306 L 0.167 -0.316 Q 0.10300000000000001 -0.353 0.10200000000000001 -0.422 Q 0.10200000000000001 -0.498 0.17500000000000002 -0.557 Q 0.218 -0.593 0.277 -0.609 Q 0.27 -0.637 0.27 -0.648 Q 0.27 -0.6970000000000001 0.28800000000000003 -0.6970000000000001 Q 0.3 -0.6970000000000001 0.3 -0.684 L 0.295 -0.648 L 0.295 -0.647 Q 0.295 -0.629 0.3 -0.614 Q 0.326 -0.619 0.363 -0.619 Q 0.437 -0.619 0.445 -0.599 L 0.445 -0.598 L 0.445 -0.597 Q 0.446 -0.595 0.446 -0.592 Q 0.446 -0.561 0.357 -0.561 Q 0.314 -0.561 0.296 -0.579 Q 0.295 -0.581 0.293 -0.583 Q 0.219 -0.546 0.191 -0.466 Q 0.182 -0.439 0.182 -0.41300000000000003 Q 0.182 -0.365 0.212 -0.335 Q 0.249 -0.34700000000000003 0.296 -0.34700000000000003 Q 0.376 -0.34700000000000003 0.378 -0.32 Q 0.378 -0.289 0.28500000000000003 -0.289 Q 0.234 -0.289 0.197 -0.302 Q 0.121 -0.264 0.08700000000000001 -0.184 Q 0.074 -0.154 0.074 -0.132 Q 0.074 -0.073 0.149 -0.043000000000000003 L 0.209 -0.019 Q 0.23 -0.012 0.27 0.004 Q 0.314 0.021 0.331 0.027 Q 0.379 0.049 0.379 0.098 Q 0.379 0.147 0.339 0.181 Q 0.32 0.197 0.297 0.202 Q 0.28600000000000003 0.20500000000000002 0.275 0.20500000000000002 Q 0.221 0.20500000000000002 0.179 0.17300000000000001 Q 0.166 0.163 0.166 0.157 Q 0.166 0.146 0.176 0.146 Q 0.18 0.146 0.187 0.151 Q 0.231 0.183 0.275 0.183 Q 0.307 0.183 0.32 0.149 Q 0.324 0.139 0.324 0.13 Q 0.324 0.10400000000000001 0.297 0.091 Q 0.301 0.093 0.289 0.08700000000000001 L 0.168 0.04 Q 0.095 0.013000000000000001 0.075 -0.003 Q 0.066 -0.01 0.052000000000000005 -0.025 Q 0.036000000000000004 -0.049 0.035 -0.05 Q 0.023 -0.075 0.023 -0.10400000000000001 Q 0.023 -0.166 0.073 -0.231 Q 0.105 -0.274 0.154 -0.306 M 0.316 -0.592 Q 0.327 -0.583 0.358 -0.583 Q 0.399 -0.583 0.42 -0.591 Q 0.398 -0.597 0.364 -0.597 Q 0.332 -0.597 0.316 -0.592 M 0.23800000000000002 -0.319 Q 0.256 -0.311 0.28800000000000003 -0.311 Q 0.336 -0.311 0.352 -0.319 Q 0.33 -0.325 0.295 -0.325 Q 0.261 -0.325 0.23800000000000002 -0.319 Z"/></g><g transform="translate(65.0921378919891,28.10481818181818) scale(0.7,0.7)"><path fill="rgb(204,0,0)" stroke="none" paint-order="stroke fill markers" d=" M 0.294 -0.64 L 0.294 -0.079 Q 0.294 -0.049 0.306 -0.041 Q 0.323 -0.031 0.387 -0.031 L 0.419 -0.031 L 0.419 0 Q 0.384 -0.003 0.257 -0.003 Q 0.13 -0.003 0.095 0 L 0.095 -0.031 L 0.127 -0.031 Q 0.20400000000000001 -0.031 0.215 -0.049 L 0.216 -0.05 Q 0.22 -0.058 0.22 -0.079 L 0.22 -0.597 Q 0.168 -0.5710000000000001 0.089 -0.5710000000000001 L 0.089 -0.602 Q 0.209 -0.602 0.271 -0.666 Q 0.29 -0.666 0.293 -0.659 L 0.293 -0.659 L 0.293 -0.658 Q 0.294 -0.655 0.294 -0.64 Z"/></g><rect fill="rgb(204,0,0)" stroke="none" x="64.6541378919891" y="28.28232668181818" width="0.788" height="0.039999"/><g transform="translate(64.6541378919891,29.23827718181818)"><path fill="rgb(204,0,0)" stroke="none" paint-order="stroke fill markers" d=" M 0.154 -0.306 L 0.154 -0.306 L 0.167 -0.316 Q 0.10300000000000001 -0.353 0.10200000000000001 -0.422 Q 0.10200000000000001 -0.498 0.17500000000000002 -0.557 Q 0.218 -0.593 0.277 -0.609 Q 0.27 -0.637 0.27 -0.648 Q 0.27 -0.6970000000000001 0.28800000000000003 -0.6970000000000001 Q 0.3 -0.6970000000000001 0.3 -0.684 L 0.295 -0.648 L 0.295 -0.647 Q 0.295 -0.629 0.3 -0.614 Q 0.326 -0.619 0.363 -0.619 Q 0.437 -0.619 0.445 -0.599 L 0.445 -0.598 L 0.445 -0.597 Q 0.446 -0.595 0.446 -0.592 Q 0.446 -0.561 0.357 -0.561 Q 0.314 -0.561 0.296 -0.579 Q 0.295 -0.581 0.293 -0.583 Q 0.219 -0.546 0.191 -0.466 Q 0.182 -0.439 0.182 -0.41300000000000003 Q 0.182 -0.365 0.212 -0.335 Q 0.249 -0.34700000000000003 0.296 -0.34700000000000003 Q 0.376 -0.34700000000000003 0.378 -0.32 Q 0.378 -0.289 0.28500000000000003 -0.289 Q 0.234 -0.289 0.197 -0.302 Q 0.121 -0.264 0.08700000000000001 -0.184 Q 0.074 -0.154 0.074 -0.132 Q 0.074 -0.073 0.149 -0.043000000000000003 L 0.209 -0.019 Q 0.23 -0.012 0.27 0.004 Q 0.314 0.021 0.331 0.027 Q 0.379 0.049 0.379 0.098 Q 0.379 0.147 0.339 0.181 Q 0.32 0.197 0.297 0.202 Q 0.28600000000000003 0.20500000000000002 0.275 0.20500000000000002 Q 0.221 0.20500000000000002 0.179 0.17300000000000001 Q 0.166 0.163 0.166 0.157 Q 0.166 0.146 0.176 0.146 Q 0.18 0.146 0.187 0.151 Q 0.231 0.183 0.275 0.183 Q 0.307 0.183 0.32 0.149 Q 0.324 0.139 0.324 0.13 Q 0.324 0.10400000000000001 0.297 0.091 Q 0.301 0.093 0.289 0.08700000000000001 L 0.168 0.04 Q 0.095 0.013000000000000001 0.075 -0.003 Q 0.066 -0.01 0.052000000000000005 -0.025 Q 0.036000000000000004 -0.049 0.035 -0.05 Q 0.023 -0.075 0.023 -0.10400000000000001 Q 0.023 -0.166 0.073 -0.231 Q 0.105 -0.274 0.154 -0.306 M 0.316 -0.592 Q 0.327 -0.583 0.358 -0.583 Q 0.399 -0.583 0.42 -0.591 Q 0.398 -0.597 0.364 -0.597 Q 0.332 -0.597 0.316 -0.592 M 0.23800000000000002 -0.319 Q 0.256 -0.311 0.28800000000000003 -0.311 Q 0.336 -0.311 0.352 -0.319 Q 0.33 -0.325 0.295 -0.325 Q 0.261 -0.325 0.23800000000000002 -0.319 Z"/></g><g transform="translate(65.0921378919891,29.46727718181818) scale(0.7,0.7)"><path fill="rgb(204,0,0)" stroke="none" paint-order="stroke fill markers" d=" M 0.46 -0.32 Q 0.46 -0.17400000000000002 0.423 -0.094 Q 0.364 0.018000000000000002 0.249 0.022 Q 0.158 0.022 0.10300000000000001 -0.05 Q 0.092 -0.063 0.084 -0.079 Q 0.039 -0.162 0.039 -0.32 Q 0.039 -0.467 0.076 -0.547 Q 0.126 -0.659 0.23800000000000002 -0.666 L 0.25 -0.666 Q 0.339 -0.666 0.395 -0.595 L 0.395 -0.594 Q 0.40900000000000003 -0.5760000000000001 0.42 -0.554 Q 0.46 -0.46900000000000003 0.46 -0.32 M 0.249 0 L 0.249 0 Q 0.312 0 0.34600000000000003 -0.061 Q 0.36 -0.088 0.366 -0.125 Q 0.377 -0.189 0.377 -0.332 Q 0.377 -0.47100000000000003 0.367 -0.527 Q 0.34900000000000003 -0.622 0.275 -0.641 Q 0.262 -0.644 0.249 -0.644 Q 0.179 -0.644 0.147 -0.5740000000000001 Q 0.136 -0.55 0.13 -0.516 Q 0.122 -0.462 0.122 -0.332 Q 0.122 -0.181 0.133 -0.121 Q 0.151 -0.025 0.221 -0.004 Q 0.23500000000000001 0 0.249 0 Z"/></g><g transform="translate(65.82859901630141,28.552326181818184)"><path fill="rgb(204,0,0)" stroke="none" paint-order="stroke fill markers" d=" M 0.687 -0.327 L 0.09 -0.327 Q 0.058 -0.327 0.056 -0.34700000000000003 Q 0.056 -0.367 0.089 -0.367 L 0.6880000000000001 -0.367 Q 0.72 -0.367 0.721 -0.34700000000000003 Q 0.721 -0.327 0.687 -0.327 M 0.6880000000000001 -0.133 L 0.089 -0.133 Q 0.057 -0.133 0.056 -0.153 Q 0.056 -0.17300000000000001 0.09 -0.17300000000000001 L 0.687 -0.17300000000000001 Q 0.719 -0.17300000000000001 0.721 -0.153 Q 0.721 -0.133 0.6880000000000001 -0.133 Z"/></g><g transform="translate(66.88437679407919,28.552326181818184)"><path fill="rgb(204,0,0)" stroke="none" paint-order="stroke fill markers" d=" M 0.028 0.169 L 0.18 -0.437 Q 0.209 -0.551 0.292 -0.631 Q 0.37 -0.705 0.456 -0.705 Q 0.539 -0.705 0.5750000000000001 -0.639 Q 0.59 -0.611 0.59 -0.577 Q 0.59 -0.502 0.528 -0.439 Q 0.507 -0.418 0.482 -0.403 Q 0.549 -0.357 0.549 -0.264 Q 0.549 -0.161 0.46900000000000003 -0.076 Q 0.392 0.005 0.296 0.012 L 0.28300000000000003 0.012 Q 0.186 0.012 0.14100000000000001 -0.063 Q 0.129 -0.083 0.123 -0.105 L 0.048 0.188 L 0.047 0.19 Q 0.043000000000000003 0.194 0.037 0.194 Q 0.025 0.194 0.025 0.184 Q 0.025 0.181 0.028 0.169 M 0.328 -0.401 Q 0.34500000000000003 -0.395 0.371 -0.395 Q 0.401 -0.395 0.419 -0.403 Q 0.406 -0.40900000000000003 0.379 -0.40900000000000003 Q 0.34400000000000003 -0.40900000000000003 0.328 -0.401 M 0.45 -0.421 Q 0.511 -0.467 0.525 -0.577 L 0.525 -0.578 L 0.525 -0.58 Q 0.527 -0.594 0.527 -0.602 Q 0.527 -0.673 0.46900000000000003 -0.682 Q 0.462 -0.683 0.455 -0.683 Q 0.372 -0.683 0.299 -0.606 Q 0.23 -0.534 0.2 -0.41600000000000004 L 0.154 -0.231 Q 0.14100000000000001 -0.179 0.14100000000000001 -0.156 Q 0.14100000000000001 -0.074 0.2 -0.034 Q 0.234 -0.01 0.281 -0.01 Q 0.359 -0.01 0.41500000000000004 -0.094 Q 0.422 -0.10300000000000001 0.427 -0.113 Q 0.462 -0.179 0.47400000000000003 -0.274 Q 0.47600000000000003 -0.291 0.47600000000000003 -0.302 Q 0.47600000000000003 -0.355 0.446 -0.386 Q 0.41400000000000003 -0.373 0.371 -0.373 Q 0.303 -0.373 0.303 -0.399 Q 0.303 -0.431 0.381 -0.431 Q 0.422 -0.431 0.45 -0.421 Z"/></g><g transform="translate(67.72559901630142,28.552326181818184)"><path fill="rgb(204,0,0)" stroke="none" paint-order="stroke fill markers" d=" M 0.40900000000000003 -0.23 L 0.40900000000000003 0.05 Q 0.40900000000000003 0.082 0.389 0.083 Q 0.369 0.083 0.369 0.05 L 0.369 -0.23 L 0.089 -0.23 Q 0.057 -0.23 0.056 -0.25 Q 0.056 -0.27 0.089 -0.27 L 0.369 -0.27 L 0.369 -0.55 Q 0.369 -0.582 0.389 -0.583 Q 0.40900000000000003 -0.583 0.40900000000000003 -0.55 L 0.40900000000000003 -0.27 L 0.6880000000000001 -0.27 Q 0.72 -0.27 0.721 -0.25 Q 0.721 -0.23 0.6880000000000001 -0.23 L 0.40900000000000003 -0.23 Z"/></g><g transform="translate(68.72582123852365,28.552326181818184)"><path fill="rgb(204,0,0)" stroke="none" paint-order="stroke fill markers" d=" M 0.298 -0.226 L 0.298 -0.226 L 0.133 -0.226 Q 0.122 -0.182 0.122 -0.14100000000000001 Q 0.122 -0.049 0.186 -0.02 Q 0.20600000000000002 -0.011 0.23 -0.011 Q 0.278 -0.011 0.335 -0.048 Q 0.34400000000000003 -0.054 0.34800000000000003 -0.054 Q 0.358 -0.054 0.358 -0.04 Q 0.358 -0.03 0.318 -0.011 Q 0.272 0.011 0.228 0.011 Q 0.132 0.011 0.081 -0.063 Q 0.047 -0.112 0.047 -0.178 Q 0.047 -0.296 0.14100000000000001 -0.371 Q 0.216 -0.431 0.311 -0.431 L 0.34600000000000003 -0.431 Q 0.373 -0.431 0.376 -0.417 Q 0.37 -0.4 0.343 -0.4 L 0.312 -0.4 Q 0.196 -0.4 0.15 -0.28400000000000003 Q 0.145 -0.271 0.14100000000000001 -0.257 L 0.303 -0.257 Q 0.329 -0.257 0.332 -0.243 Q 0.332 -0.226 0.298 -0.226 Z"/></g></g><g transform="scale(11,11)"><g transform="translate(41.10868334653455,53.87581818181818)"><path fill="rgb(0,51,153)" stroke="none" paint-order="stroke fill markers" d=" M 0.154 -0.306 L 0.154 -0.306 L 0.167 -0.316 Q 0.10300000000000001 -0.353 0.10200000000000001 -0.422 Q 0.10200000000000001 -0.498 0.17500000000000002 -0.557 Q 0.218 -0.593 0.277 -0.609 Q 0.27 -0.637 0.27 -0.648 Q 0.27 -0.6970000000000001 0.28800000000000003 -0.6970000000000001 Q 0.3 -0.6970000000000001 0.3 -0.684 L 0.295 -0.648 L 0.295 -0.647 Q 0.295 -0.629 0.3 -0.614 Q 0.326 -0.619 0.363 -0.619 Q 0.437 -0.619 0.445 -0.599 L 0.445 -0.598 L 0.445 -0.597 Q 0.446 -0.595 0.446 -0.592 Q 0.446 -0.561 0.357 -0.561 Q 0.314 -0.561 0.296 -0.579 Q 0.295 -0.581 0.293 -0.583 Q 0.219 -0.546 0.191 -0.466 Q 0.182 -0.439 0.182 -0.41300000000000003 Q 0.182 -0.365 0.212 -0.335 Q 0.249 -0.34700000000000003 0.296 -0.34700000000000003 Q 0.376 -0.34700000000000003 0.378 -0.32 Q 0.378 -0.289 0.28500000000000003 -0.289 Q 0.234 -0.289 0.197 -0.302 Q 0.121 -0.264 0.08700000000000001 -0.184 Q 0.074 -0.154 0.074 -0.132 Q 0.074 -0.073 0.149 -0.043000000000000003 L 0.209 -0.019 Q 0.23 -0.012 0.27 0.004 Q 0.314 0.021 0.331 0.027 Q 0.379 0.049 0.379 0.098 Q 0.379 0.147 0.339 0.181 Q 0.32 0.197 0.297 0.202 Q 0.28600000000000003 0.20500000000000002 0.275 0.20500000000000002 Q 0.221 0.20500000000000002 0.179 0.17300000000000001 Q 0.166 0.163 0.166 0.157 Q 0.166 0.146 0.176 0.146 Q 0.18 0.146 0.187 0.151 Q 0.231 0.183 0.275 0.183 Q 0.307 0.183 0.32 0.149 Q 0.324 0.139 0.324 0.13 Q 0.324 0.10400000000000001 0.297 0.091 Q 0.301 0.093 0.289 0.08700000000000001 L 0.168 0.04 Q 0.095 0.013000000000000001 0.075 -0.003 Q 0.066 -0.01 0.052000000000000005 -0.025 Q 0.036000000000000004 -0.049 0.035 -0.05 Q 0.023 -0.075 0.023 -0.10400000000000001 Q 0.023 -0.166 0.073 -0.231 Q 0.105 -0.274 0.154 -0.306 M 0.316 -0.592 Q 0.327 -0.583 0.358 -0.583 Q 0.399 -0.583 0.42 -0.591 Q 0.398 -0.597 0.364 -0.597 Q 0.332 -0.597 0.316 -0.592 M 0.23800000000000002 -0.319 Q 0.256 -0.311 0.28800000000000003 -0.311 Q 0.336 -0.311 0.352 -0.319 Q 0.33 -0.325 0.295 -0.325 Q 0.261 -0.325 0.23800000000000002 -0.319 Z"/></g><g transform="translate(41.54668334653455,54.10481818181818) scale(0.7,0.7)"><path fill="rgb(0,51,153)" stroke="none" paint-order="stroke fill markers" d=" M 0.294 -0.64 L 0.294 -0.079 Q 0.294 -0.049 0.306 -0.041 Q 0.323 -0.031 0.387 -0.031 L 0.419 -0.031 L 0.419 0 Q 0.384 -0.003 0.257 -0.003 Q 0.13 -0.003 0.095 0 L 0.095 -0.031 L 0.127 -0.031 Q 0.20400000000000001 -0.031 0.215 -0.049 L 0.216 -0.05 Q 0.22 -0.058 0.22 -0.079 L 0.22 -0.597 Q 0.168 -0.5710000000000001 0.089 -0.5710000000000001 L 0.089 -0.602 Q 0.209 -0.602 0.271 -0.666 Q 0.29 -0.666 0.293 -0.659 L 0.293 -0.659 L 0.293 -0.658 Q 0.294 -0.655 0.294 -0.64 Z"/></g><rect fill="rgb(0,51,153)" stroke="none" x="41.10868334653455" y="54.28232668181818" width="0.788" height="0.039999"/><g transform="translate(41.10868334653455,55.23827718181819)"><path fill="rgb(0,51,153)" stroke="none" paint-order="stroke fill markers" d=" M 0.154 -0.306 L 0.154 -0.306 L 0.167 -0.316 Q 0.10300000000000001 -0.353 0.10200000000000001 -0.422 Q 0.10200000000000001 -0.498 0.17500000000000002 -0.557 Q 0.218 -0.593 0.277 -0.609 Q 0.27 -0.637 0.27 -0.648 Q 0.27 -0.6970000000000001 0.28800000000000003 -0.6970000000000001 Q 0.3 -0.6970000000000001 0.3 -0.684 L 0.295 -0.648 L 0.295 -0.647 Q 0.295 -0.629 0.3 -0.614 Q 0.326 -0.619 0.363 -0.619 Q 0.437 -0.619 0.445 -0.599 L 0.445 -0.598 L 0.445 -0.597 Q 0.446 -0.595 0.446 -0.592 Q 0.446 -0.561 0.357 -0.561 Q 0.314 -0.561 0.296 -0.579 Q 0.295 -0.581 0.293 -0.583 Q 0.219 -0.546 0.191 -0.466 Q 0.182 -0.439 0.182 -0.41300000000000003 Q 0.182 -0.365 0.212 -0.335 Q 0.249 -0.34700000000000003 0.296 -0.34700000000000003 Q 0.376 -0.34700000000000003 0.378 -0.32 Q 0.378 -0.289 0.28500000000000003 -0.289 Q 0.234 -0.289 0.197 -0.302 Q 0.121 -0.264 0.08700000000000001 -0.184 Q 0.074 -0.154 0.074 -0.132 Q 0.074 -0.073 0.149 -0.043000000000000003 L 0.209 -0.019 Q 0.23 -0.012 0.27 0.004 Q 0.314 0.021 0.331 0.027 Q 0.379 0.049 0.379 0.098 Q 0.379 0.147 0.339 0.181 Q 0.32 0.197 0.297 0.202 Q 0.28600000000000003 0.20500000000000002 0.275 0.20500000000000002 Q 0.221 0.20500000000000002 0.179 0.17300000000000001 Q 0.166 0.163 0.166 0.157 Q 0.166 0.146 0.176 0.146 Q 0.18 0.146 0.187 0.151 Q 0.231 0.183 0.275 0.183 Q 0.307 0.183 0.32 0.149 Q 0.324 0.139 0.324 0.13 Q 0.324 0.10400000000000001 0.297 0.091 Q 0.301 0.093 0.289 0.08700000000000001 L 0.168 0.04 Q 0.095 0.013000000000000001 0.075 -0.003 Q 0.066 -0.01 0.052000000000000005 -0.025 Q 0.036000000000000004 -0.049 0.035 -0.05 Q 0.023 -0.075 0.023 -0.10400000000000001 Q 0.023 -0.166 0.073 -0.231 Q 0.105 -0.274 0.154 -0.306 M 0.316 -0.592 Q 0.327 -0.583 0.358 -0.583 Q 0.399 -0.583 0.42 -0.591 Q 0.398 -0.597 0.364 -0.597 Q 0.332 -0.597 0.316 -0.592 M 0.23800000000000002 -0.319 Q 0.256 -0.311 0.28800000000000003 -0.311 Q 0.336 -0.311 0.352 -0.319 Q 0.33 -0.325 0.295 -0.325 Q 0.261 -0.325 0.23800000000000002 -0.319 Z"/></g><g transform="translate(41.54668334653455,55.46727718181819) scale(0.7,0.7)"><path fill="rgb(0,51,153)" stroke="none" paint-order="stroke fill markers" d=" M 0.46 -0.32 Q 0.46 -0.17400000000000002 0.423 -0.094 Q 0.364 0.018000000000000002 0.249 0.022 Q 0.158 0.022 0.10300000000000001 -0.05 Q 0.092 -0.063 0.084 -0.079 Q 0.039 -0.162 0.039 -0.32 Q 0.039 -0.467 0.076 -0.547 Q 0.126 -0.659 0.23800000000000002 -0.666 L 0.25 -0.666 Q 0.339 -0.666 0.395 -0.595 L 0.395 -0.594 Q 0.40900000000000003 -0.5760000000000001 0.42 -0.554 Q 0.46 -0.46900000000000003 0.46 -0.32 M 0.249 0 L 0.249 0 Q 0.312 0 0.34600000000000003 -0.061 Q 0.36 -0.088 0.366 -0.125 Q 0.377 -0.189 0.377 -0.332 Q 0.377 -0.47100000000000003 0.367 -0.527 Q 0.34900000000000003 -0.622 0.275 -0.641 Q 0.262 -0.644 0.249 -0.644 Q 0.179 -0.644 0.147 -0.5740000000000001 Q 0.136 -0.55 0.13 -0.516 Q 0.122 -0.462 0.122 -0.332 Q 0.122 -0.181 0.133 -0.121 Q 0.151 -0.025 0.221 -0.004 Q 0.23500000000000001 0 0.249 0 Z"/></g><g transform="translate(42.28314447084687,54.55232618181818)"><path fill="rgb(0,51,153)" stroke="none" paint-order="stroke fill markers" d=" M 0.687 -0.327 L 0.09 -0.327 Q 0.058 -0.327 0.056 -0.34700000000000003 Q 0.056 -0.367 0.089 -0.367 L 0.6880000000000001 -0.367 Q 0.72 -0.367 0.721 -0.34700000000000003 Q 0.721 -0.327 0.687 -0.327 M 0.6880000000000001 -0.133 L 0.089 -0.133 Q 0.057 -0.133 0.056 -0.153 Q 0.056 -0.17300000000000001 0.09 -0.17300000000000001 L 0.687 -0.17300000000000001 Q 0.719 -0.17300000000000001 0.721 -0.153 Q 0.721 -0.133 0.6880000000000001 -0.133 Z"/></g><g transform="translate(43.33892224862465,54.55232618181818)"><path fill="rgb(0,51,153)" stroke="none" paint-order="stroke fill markers" d=" M 0.154 -0.306 L 0.154 -0.306 L 0.167 -0.316 Q 0.10300000000000001 -0.353 0.10200000000000001 -0.422 Q 0.10200000000000001 -0.498 0.17500000000000002 -0.557 Q 0.218 -0.593 0.277 -0.609 Q 0.27 -0.637 0.27 -0.648 Q 0.27 -0.6970000000000001 0.28800000000000003 -0.6970000000000001 Q 0.3 -0.6970000000000001 0.3 -0.684 L 0.295 -0.648 L 0.295 -0.647 Q 0.295 -0.629 0.3 -0.614 Q 0.326 -0.619 0.363 -0.619 Q 0.437 -0.619 0.445 -0.599 L 0.445 -0.598 L 0.445 -0.597 Q 0.446 -0.595 0.446 -0.592 Q 0.446 -0.561 0.357 -0.561 Q 0.314 -0.561 0.296 -0.579 Q 0.295 -0.581 0.293 -0.583 Q 0.219 -0.546 0.191 -0.466 Q 0.182 -0.439 0.182 -0.41300000000000003 Q 0.182 -0.365 0.212 -0.335 Q 0.249 -0.34700000000000003 0.296 -0.34700000000000003 Q 0.376 -0.34700000000000003 0.378 -0.32 Q 0.378 -0.289 0.28500000000000003 -0.289 Q 0.234 -0.289 0.197 -0.302 Q 0.121 -0.264 0.08700000000000001 -0.184 Q 0.074 -0.154 0.074 -0.132 Q 0.074 -0.073 0.149 -0.043000000000000003 L 0.209 -0.019 Q 0.23 -0.012 0.27 0.004 Q 0.314 0.021 0.331 0.027 Q 0.379 0.049 0.379 0.098 Q 0.379 0.147 0.339 0.181 Q 0.32 0.197 0.297 0.202 Q 0.28600000000000003 0.20500000000000002 0.275 0.20500000000000002 Q 0.221 0.20500000000000002 0.179 0.17300000000000001 Q 0.166 0.163 0.166 0.157 Q 0.166 0.146 0.176 0.146 Q 0.18 0.146 0.187 0.151 Q 0.231 0.183 0.275 0.183 Q 0.307 0.183 0.32 0.149 Q 0.324 0.139 0.324 0.13 Q 0.324 0.10400000000000001 0.297 0.091 Q 0.301 0.093 0.289 0.08700000000000001 L 0.168 0.04 Q 0.095 0.013000000000000001 0.075 -0.003 Q 0.066 -0.01 0.052000000000000005 -0.025 Q 0.036000000000000004 -0.049 0.035 -0.05 Q 0.023 -0.075 0.023 -0.10400000000000001 Q 0.023 -0.166 0.073 -0.231 Q 0.105 -0.274 0.154 -0.306 M 0.316 -0.592 Q 0.327 -0.583 0.358 -0.583 Q 0.399 -0.583 0.42 -0.591 Q 0.398 -0.597 0.364 -0.597 Q 0.332 -0.597 0.316 -0.592 M 0.23800000000000002 -0.319 Q 0.256 -0.311 0.28800000000000003 -0.311 Q 0.336 -0.311 0.352 -0.319 Q 0.33 -0.325 0.295 -0.325 Q 0.261 -0.325 0.23800000000000002 -0.319 Z"/></g><g transform="translate(43.77692224862465,54.78132618181818) scale(0.7,0.7)"><path fill="rgb(0,51,153)" stroke="none" paint-order="stroke fill markers" d=" M 0.294 -0.64 L 0.294 -0.079 Q 0.294 -0.049 0.306 -0.041 Q 0.323 -0.031 0.387 -0.031 L 0.419 -0.031 L 0.419 0 Q 0.384 -0.003 0.257 -0.003 Q 0.13 -0.003 0.095 0 L 0.095 -0.031 L 0.127 -0.031 Q 0.20400000000000001 -0.031 0.215 -0.049 L 0.216 -0.05 Q 0.22 -0.058 0.22 -0.079 L 0.22 -0.597 Q 0.168 -0.5710000000000001 0.089 -0.5710000000000001 L 0.089 -0.602 Q 0.209 -0.602 0.271 -0.666 Q 0.29 -0.666 0.293 -0.659 L 0.293 -0.659 L 0.293 -0.658 Q 0.294 -0.655 0.294 -0.64 Z"/></g><g transform="translate(44.40470002640242,54.55232618181818)"><path fill="rgb(0,51,153)" stroke="none" paint-order="stroke fill markers" d=" M 0.687 -0.327 L 0.09 -0.327 Q 0.058 -0.327 0.056 -0.34700000000000003 Q 0.056 -0.367 0.089 -0.367 L 0.6880000000000001 -0.367 Q 0.72 -0.367 0.721 -0.34700000000000003 Q 0.721 -0.327 0.687 -0.327 M 0.6880000000000001 -0.133 L 0.089 -0.133 Q 0.057 -0.133 0.056 -0.153 Q 0.056 -0.17300000000000001 0.09 -0.17300000000000001 L 0.687 -0.17300000000000001 Q 0.719 -0.17300000000000001 0.721 -0.153 Q 0.721 -0.133 0.6880000000000001 -0.133 Z"/></g><g transform="translate(45.4604778041802,54.55232618181818)"><path fill="rgb(0,51,153)" stroke="none" paint-order="stroke fill markers" d=" M 0.46 -0.32 Q 0.46 -0.17400000000000002 0.423 -0.094 Q 0.364 0.018000000000000002 0.249 0.022 Q 0.158 0.022 0.10300000000000001 -0.05 Q 0.092 -0.063 0.084 -0.079 Q 0.039 -0.162 0.039 -0.32 Q 0.039 -0.467 0.076 -0.547 Q 0.126 -0.659 0.23800000000000002 -0.666 L 0.25 -0.666 Q 0.339 -0.666 0.395 -0.595 L 0.395 -0.594 Q 0.40900000000000003 -0.5760000000000001 0.42 -0.554 Q 0.46 -0.46900000000000003 0.46 -0.32 M 0.249 0 L 0.249 0 Q 0.312 0 0.34600000000000003 -0.061 Q 0.36 -0.088 0.366 -0.125 Q 0.377 -0.189 0.377 -0.332 Q 0.377 -0.47100000000000003 0.367 -0.527 Q 0.34900000000000003 -0.622 0.275 -0.641 Q 0.262 -0.644 0.249 -0.644 Q 0.179 -0.644 0.147 -0.5740000000000001 Q 0.136 -0.55 0.13 -0.516 Q 0.122 -0.462 0.122 -0.332 Q 0.122 -0.181 0.133 -0.121 Q 0.151 -0.025 0.221 -0.004 Q 0.23500000000000001 0 0.249 0 Z"/></g></g><g transform="scale(11,11)"><g transform="translate(13.181818181818182,49.51218181818182)"><path fill="rgb(0,51,153)" stroke="none" paint-order="stroke fill markers" d=" M 0.154 -0.306 L 0.154 -0.306 L 0.167 -0.316 Q 0.10300000000000001 -0.353 0.10200000000000001 -0.422 Q 0.10200000000000001 -0.498 0.17500000000000002 -0.557 Q 0.218 -0.593 0.277 -0.609 Q 0.27 -0.637 0.27 -0.648 Q 0.27 -0.6970000000000001 0.28800000000000003 -0.6970000000000001 Q 0.3 -0.6970000000000001 0.3 -0.684 L 0.295 -0.648 L 0.295 -0.647 Q 0.295 -0.629 0.3 -0.614 Q 0.326 -0.619 0.363 -0.619 Q 0.437 -0.619 0.445 -0.599 L 0.445 -0.598 L 0.445 -0.597 Q 0.446 -0.595 0.446 -0.592 Q 0.446 -0.561 0.357 -0.561 Q 0.314 -0.561 0.296 -0.579 Q 0.295 -0.581 0.293 -0.583 Q 0.219 -0.546 0.191 -0.466 Q 0.182 -0.439 0.182 -0.41300000000000003 Q 0.182 -0.365 0.212 -0.335 Q 0.249 -0.34700000000000003 0.296 -0.34700000000000003 Q 0.376 -0.34700000000000003 0.378 -0.32 Q 0.378 -0.289 0.28500000000000003 -0.289 Q 0.234 -0.289 0.197 -0.302 Q 0.121 -0.264 0.08700000000000001 -0.184 Q 0.074 -0.154 0.074 -0.132 Q 0.074 -0.073 0.149 -0.043000000000000003 L 0.209 -0.019 Q 0.23 -0.012 0.27 0.004 Q 0.314 0.021 0.331 0.027 Q 0.379 0.049 0.379 0.098 Q 0.379 0.147 0.339 0.181 Q 0.32 0.197 0.297 0.202 Q 0.28600000000000003 0.20500000000000002 0.275 0.20500000000000002 Q 0.221 0.20500000000000002 0.179 0.17300000000000001 Q 0.166 0.163 0.166 0.157 Q 0.166 0.146 0.176 0.146 Q 0.18 0.146 0.187 0.151 Q 0.231 0.183 0.275 0.183 Q 0.307 0.183 0.32 0.149 Q 0.324 0.139 0.324 0.13 Q 0.324 0.10400000000000001 0.297 0.091 Q 0.301 0.093 0.289 0.08700000000000001 L 0.168 0.04 Q 0.095 0.013000000000000001 0.075 -0.003 Q 0.066 -0.01 0.052000000000000005 -0.025 Q 0.036000000000000004 -0.049 0.035 -0.05 Q 0.023 -0.075 0.023 -0.10400000000000001 Q 0.023 -0.166 0.073 -0.231 Q 0.105 -0.274 0.154 -0.306 M 0.316 -0.592 Q 0.327 -0.583 0.358 -0.583 Q 0.399 -0.583 0.42 -0.591 Q 0.398 -0.597 0.364 -0.597 Q 0.332 -0.597 0.316 -0.592 M 0.23800000000000002 -0.319 Q 0.256 -0.311 0.28800000000000003 -0.311 Q 0.336 -0.311 0.352 -0.319 Q 0.33 -0.325 0.295 -0.325 Q 0.261 -0.325 0.23800000000000002 -0.319 Z"/></g><g transform="translate(13.619818181818182,49.74118181818182) scale(0.7,0.7)"><path fill="rgb(0,51,153)" stroke="none" paint-order="stroke fill markers" d=" M 0.294 -0.64 L 0.294 -0.079 Q 0.294 -0.049 0.306 -0.041 Q 0.323 -0.031 0.387 -0.031 L 0.419 -0.031 L 0.419 0 Q 0.384 -0.003 0.257 -0.003 Q 0.13 -0.003 0.095 0 L 0.095 -0.031 L 0.127 -0.031 Q 0.20400000000000001 -0.031 0.215 -0.049 L 0.216 -0.05 Q 0.22 -0.058 0.22 -0.079 L 0.22 -0.597 Q 0.168 -0.5710000000000001 0.089 -0.5710000000000001 L 0.089 -0.602 Q 0.209 -0.602 0.271 -0.666 Q 0.29 -0.666 0.293 -0.659 L 0.293 -0.659 L 0.293 -0.658 Q 0.294 -0.655 0.294 -0.64 Z"/></g><g transform="translate(14.24759595959596,49.51218181818182)"><path fill="rgb(0,51,153)" stroke="none" paint-order="stroke fill markers" d=" M 0.687 -0.327 L 0.09 -0.327 Q 0.058 -0.327 0.056 -0.34700000000000003 Q 0.056 -0.367 0.089 -0.367 L 0.6880000000000001 -0.367 Q 0.72 -0.367 0.721 -0.34700000000000003 Q 0.721 -0.327 0.687 -0.327 M 0.6880000000000001 -0.133 L 0.089 -0.133 Q 0.057 -0.133 0.056 -0.153 Q 0.056 -0.17300000000000001 0.09 -0.17300000000000001 L 0.687 -0.17300000000000001 Q 0.719 -0.17300000000000001 0.721 -0.153 Q 0.721 -0.133 0.6880000000000001 -0.133 Z"/></g><g transform="translate(15.30337373737374,49.51218181818182)"><path fill="rgb(0,51,153)" stroke="none" paint-order="stroke fill markers" d=" M 0.47700000000000004 -0.23600000000000002 L 0.47700000000000004 -0.23600000000000002 L 0.47700000000000004 -0.17400000000000002 Q 0.542 -0.255 0.5750000000000001 -0.372 Q 0.585 -0.392 0.59 -0.393 Q 0.602 -0.393 0.602 -0.383 Q 0.602 -0.366 0.579 -0.307 Q 0.545 -0.221 0.487 -0.148 Q 0.47700000000000004 -0.128 0.47700000000000004 -0.113 Q 0.47700000000000004 -0.011 0.508 -0.011 Q 0.539 -0.011 0.558 -0.046 Q 0.561 -0.052000000000000005 0.5640000000000001 -0.06 Q 0.5680000000000001 -0.07 0.577 -0.07 Q 0.589 -0.07 0.589 -0.06 Q 0.589 -0.041 0.5640000000000001 -0.015 Q 0.538 0.011 0.505 0.011 Q 0.442 0.011 0.418 -0.058 Q 0.41600000000000004 -0.065 0.41400000000000003 -0.073 Q 0.309 0.011 0.203 0.011 Q 0.109 0.011 0.065 -0.064 Q 0.041 -0.105 0.041 -0.158 Q 0.041 -0.26 0.11900000000000001 -0.34700000000000003 Q 0.196 -0.433 0.293 -0.441 Q 0.302 -0.442 0.31 -0.442 Q 0.394 -0.442 0.44 -0.376 Q 0.44 -0.375 0.441 -0.375 Q 0.47700000000000004 -0.322 0.47700000000000004 -0.23600000000000002 M 0.41000000000000003 -0.099 L 0.41000000000000003 -0.099 Q 0.40800000000000003 -0.116 0.40800000000000003 -0.211 Q 0.40800000000000003 -0.334 0.381 -0.379 Q 0.369 -0.399 0.352 -0.40900000000000003 L 0.35100000000000003 -0.41000000000000003 L 0.35100000000000003 -0.41000000000000003 L 0.35000000000000003 -0.41000000000000003 Q 0.332 -0.42 0.309 -0.42 Q 0.23800000000000002 -0.42 0.181 -0.34 L 0.17300000000000001 -0.328 Q 0.137 -0.27 0.12 -0.166 Q 0.115 -0.138 0.115 -0.12 Q 0.115 -0.036000000000000004 0.17400000000000002 -0.016 Q 0.188 -0.011 0.20500000000000002 -0.011 Q 0.309 -0.011 0.41000000000000003 -0.099 Z"/></g></g><g transform="scale(11,11)"><g transform="translate(43.45454545454545,21.147251672727272)"><path fill="rgb(102,0,204)" stroke="none" paint-order="stroke fill markers" d=" M 0.154 -0.306 L 0.154 -0.306 L 0.167 -0.316 Q 0.10300000000000001 -0.353 0.10200000000000001 -0.422 Q 0.10200000000000001 -0.498 0.17500000000000002 -0.557 Q 0.218 -0.593 0.277 -0.609 Q 0.27 -0.637 0.27 -0.648 Q 0.27 -0.6970000000000001 0.28800000000000003 -0.6970000000000001 Q 0.3 -0.6970000000000001 0.3 -0.684 L 0.295 -0.648 L 0.295 -0.647 Q 0.295 -0.629 0.3 -0.614 Q 0.326 -0.619 0.363 -0.619 Q 0.437 -0.619 0.445 -0.599 L 0.445 -0.598 L 0.445 -0.597 Q 0.446 -0.595 0.446 -0.592 Q 0.446 -0.561 0.357 -0.561 Q 0.314 -0.561 0.296 -0.579 Q 0.295 -0.581 0.293 -0.583 Q 0.219 -0.546 0.191 -0.466 Q 0.182 -0.439 0.182 -0.41300000000000003 Q 0.182 -0.365 0.212 -0.335 Q 0.249 -0.34700000000000003 0.296 -0.34700000000000003 Q 0.376 -0.34700000000000003 0.378 -0.32 Q 0.378 -0.289 0.28500000000000003 -0.289 Q 0.234 -0.289 0.197 -0.302 Q 0.121 -0.264 0.08700000000000001 -0.184 Q 0.074 -0.154 0.074 -0.132 Q 0.074 -0.073 0.149 -0.043000000000000003 L 0.209 -0.019 Q 0.23 -0.012 0.27 0.004 Q 0.314 0.021 0.331 0.027 Q 0.379 0.049 0.379 0.098 Q 0.379 0.147 0.339 0.181 Q 0.32 0.197 0.297 0.202 Q 0.28600000000000003 0.20500000000000002 0.275 0.20500000000000002 Q 0.221 0.20500000000000002 0.179 0.17300000000000001 Q 0.166 0.163 0.166 0.157 Q 0.166 0.146 0.176 0.146 Q 0.18 0.146 0.187 0.151 Q 0.231 0.183 0.275 0.183 Q 0.307 0.183 0.32 0.149 Q 0.324 0.139 0.324 0.13 Q 0.324 0.10400000000000001 0.297 0.091 Q 0.301 0.093 0.289 0.08700000000000001 L 0.168 0.04 Q 0.095 0.013000000000000001 0.075 -0.003 Q 0.066 -0.01 0.052000000000000005 -0.025 Q 0.036000000000000004 -0.049 0.035 -0.05 Q 0.023 -0.075 0.023 -0.10400000000000001 Q 0.023 -0.166 0.073 -0.231 Q 0.105 -0.274 0.154 -0.306 M 0.316 -0.592 Q 0.327 -0.583 0.358 -0.583 Q 0.399 -0.583 0.42 -0.591 Q 0.398 -0.597 0.364 -0.597 Q 0.332 -0.597 0.316 -0.592 M 0.23800000000000002 -0.319 Q 0.256 -0.311 0.28800000000000003 -0.311 Q 0.336 -0.311 0.352 -0.319 Q 0.33 -0.325 0.295 -0.325 Q 0.261 -0.325 0.23800000000000002 -0.319 Z"/></g><g transform="translate(43.892545454545456,20.723527272727274) scale(0.7,0.7)"><path fill="rgb(102,0,204)" stroke="none" paint-order="stroke fill markers" d=" M 0.449 -0.17400000000000002 L 0.449 -0.17400000000000002 L 0.421 0 L 0.05 0 Q 0.05 -0.025 0.056 -0.032 L 0.061 -0.037 L 0.253 -0.251 Q 0.358 -0.369 0.358 -0.47200000000000003 Q 0.358 -0.561 0.304 -0.607 L 0.303 -0.608 L 0.302 -0.608 Q 0.27 -0.635 0.224 -0.635 Q 0.152 -0.635 0.109 -0.5730000000000001 Q 0.097 -0.555 0.089 -0.533 Q 0.092 -0.534 0.10200000000000001 -0.534 Q 0.14200000000000002 -0.534 0.153 -0.498 L 0.153 -0.497 Q 0.155 -0.49 0.155 -0.482 Q 0.155 -0.442 0.117 -0.431 Q 0.109 -0.429 0.10300000000000001 -0.429 Q 0.066 -0.429 0.054 -0.46 Q 0.05 -0.47100000000000003 0.05 -0.485 Q 0.05 -0.562 0.109 -0.617 Q 0.162 -0.666 0.23700000000000002 -0.666 Q 0.34700000000000003 -0.666 0.40800000000000003 -0.592 Q 0.443 -0.549 0.448 -0.49 Q 0.449 -0.481 0.449 -0.47200000000000003 Q 0.449 -0.399 0.394 -0.333 Q 0.365 -0.299 0.304 -0.243 L 0.243 -0.189 L 0.233 -0.18 L 0.127 -0.077 L 0.307 -0.077 Q 0.395 -0.077 0.402 -0.085 Q 0.41200000000000003 -0.099 0.424 -0.17400000000000002 L 0.449 -0.17400000000000002 Z"/></g><g transform="translate(43.892545454545456,21.394468672727275) scale(0.7,0.7)"><path fill="rgb(102,0,204)" stroke="none" paint-order="stroke fill markers" d=" M 0.46 -0.32 Q 0.46 -0.17400000000000002 0.423 -0.094 Q 0.364 0.018000000000000002 0.249 0.022 Q 0.158 0.022 0.10300000000000001 -0.05 Q 0.092 -0.063 0.084 -0.079 Q 0.039 -0.162 0.039 -0.32 Q 0.039 -0.467 0.076 -0.547 Q 0.126 -0.659 0.23800000000000002 -0.666 L 0.25 -0.666 Q 0.339 -0.666 0.395 -0.595 L 0.395 -0.594 Q 0.40900000000000003 -0.5760000000000001 0.42 -0.554 Q 0.46 -0.46900000000000003 0.46 -0.32 M 0.249 0 L 0.249 0 Q 0.312 0 0.34600000000000003 -0.061 Q 0.36 -0.088 0.366 -0.125 Q 0.377 -0.189 0.377 -0.332 Q 0.377 -0.47100000000000003 0.367 -0.527 Q 0.34900000000000003 -0.622 0.275 -0.641 Q 0.262 -0.644 0.249 -0.644 Q 0.179 -0.644 0.147 -0.5740000000000001 Q 0.136 -0.55 0.13 -0.516 Q 0.122 -0.462 0.122 -0.332 Q 0.122 -0.181 0.133 -0.121 Q 0.151 -0.025 0.221 -0.004 Q 0.23500000000000001 0 0.249 0 Z"/></g><g transform="translate(44.5100524044904,21.147251672727272)"><path fill="rgb(102,0,204)" stroke="none" paint-order="stroke fill markers" d=" M 0.661 -0.23 L 0.116 -0.23 Q 0.084 -0.23 0.083 -0.25 Q 0.083 -0.27 0.116 -0.27 L 0.661 -0.27 Q 0.6930000000000001 -0.27 0.6940000000000001 -0.25 Q 0.6940000000000001 -0.23 0.661 -0.23 Z"/></g><g transform="translate(45.51027462671262,21.147251672727272)"><path fill="rgb(102,0,204)" stroke="none" paint-order="stroke fill markers" d=" M 0.154 -0.306 L 0.154 -0.306 L 0.167 -0.316 Q 0.10300000000000001 -0.353 0.10200000000000001 -0.422 Q 0.10200000000000001 -0.498 0.17500000000000002 -0.557 Q 0.218 -0.593 0.277 -0.609 Q 0.27 -0.637 0.27 -0.648 Q 0.27 -0.6970000000000001 0.28800000000000003 -0.6970000000000001 Q 0.3 -0.6970000000000001 0.3 -0.684 L 0.295 -0.648 L 0.295 -0.647 Q 0.295 -0.629 0.3 -0.614 Q 0.326 -0.619 0.363 -0.619 Q 0.437 -0.619 0.445 -0.599 L 0.445 -0.598 L 0.445 -0.597 Q 0.446 -0.595 0.446 -0.592 Q 0.446 -0.561 0.357 -0.561 Q 0.314 -0.561 0.296 -0.579 Q 0.295 -0.581 0.293 -0.583 Q 0.219 -0.546 0.191 -0.466 Q 0.182 -0.439 0.182 -0.41300000000000003 Q 0.182 -0.365 0.212 -0.335 Q 0.249 -0.34700000000000003 0.296 -0.34700000000000003 Q 0.376 -0.34700000000000003 0.378 -0.32 Q 0.378 -0.289 0.28500000000000003 -0.289 Q 0.234 -0.289 0.197 -0.302 Q 0.121 -0.264 0.08700000000000001 -0.184 Q 0.074 -0.154 0.074 -0.132 Q 0.074 -0.073 0.149 -0.043000000000000003 L 0.209 -0.019 Q 0.23 -0.012 0.27 0.004 Q 0.314 0.021 0.331 0.027 Q 0.379 0.049 0.379 0.098 Q 0.379 0.147 0.339 0.181 Q 0.32 0.197 0.297 0.202 Q 0.28600000000000003 0.20500000000000002 0.275 0.20500000000000002 Q 0.221 0.20500000000000002 0.179 0.17300000000000001 Q 0.166 0.163 0.166 0.157 Q 0.166 0.146 0.176 0.146 Q 0.18 0.146 0.187 0.151 Q 0.231 0.183 0.275 0.183 Q 0.307 0.183 0.32 0.149 Q 0.324 0.139 0.324 0.13 Q 0.324 0.10400000000000001 0.297 0.091 Q 0.301 0.093 0.289 0.08700000000000001 L 0.168 0.04 Q 0.095 0.013000000000000001 0.075 -0.003 Q 0.066 -0.01 0.052000000000000005 -0.025 Q 0.036000000000000004 -0.049 0.035 -0.05 Q 0.023 -0.075 0.023 -0.10400000000000001 Q 0.023 -0.166 0.073 -0.231 Q 0.105 -0.274 0.154 -0.306 M 0.316 -0.592 Q 0.327 -0.583 0.358 -0.583 Q 0.399 -0.583 0.42 -0.591 Q 0.398 -0.597 0.364 -0.597 Q 0.332 -0.597 0.316 -0.592 M 0.23800000000000002 -0.319 Q 0.256 -0.311 0.28800000000000003 -0.311 Q 0.336 -0.311 0.352 -0.319 Q 0.33 -0.325 0.295 -0.325 Q 0.261 -0.325 0.23800000000000002 -0.319 Z"/></g><g transform="translate(45.948274626712625,20.723527272727274) scale(0.7,0.7)"><path fill="rgb(102,0,204)" stroke="none" paint-order="stroke fill markers" d=" M 0.449 -0.17400000000000002 L 0.449 -0.17400000000000002 L 0.421 0 L 0.05 0 Q 0.05 -0.025 0.056 -0.032 L 0.061 -0.037 L 0.253 -0.251 Q 0.358 -0.369 0.358 -0.47200000000000003 Q 0.358 -0.561 0.304 -0.607 L 0.303 -0.608 L 0.302 -0.608 Q 0.27 -0.635 0.224 -0.635 Q 0.152 -0.635 0.109 -0.5730000000000001 Q 0.097 -0.555 0.089 -0.533 Q 0.092 -0.534 0.10200000000000001 -0.534 Q 0.14200000000000002 -0.534 0.153 -0.498 L 0.153 -0.497 Q 0.155 -0.49 0.155 -0.482 Q 0.155 -0.442 0.117 -0.431 Q 0.109 -0.429 0.10300000000000001 -0.429 Q 0.066 -0.429 0.054 -0.46 Q 0.05 -0.47100000000000003 0.05 -0.485 Q 0.05 -0.562 0.109 -0.617 Q 0.162 -0.666 0.23700000000000002 -0.666 Q 0.34700000000000003 -0.666 0.40800000000000003 -0.592 Q 0.443 -0.549 0.448 -0.49 Q 0.449 -0.481 0.449 -0.47200000000000003 Q 0.449 -0.399 0.394 -0.333 Q 0.365 -0.299 0.304 -0.243 L 0.243 -0.189 L 0.233 -0.18 L 0.127 -0.077 L 0.307 -0.077 Q 0.395 -0.077 0.402 -0.085 Q 0.41200000000000003 -0.099 0.424 -0.17400000000000002 L 0.449 -0.17400000000000002 Z"/></g><g transform="translate(45.948274626712625,21.394468672727275) scale(0.7,0.7)"><path fill="rgb(102,0,204)" stroke="none" paint-order="stroke fill markers" d=" M 0.294 -0.64 L 0.294 -0.079 Q 0.294 -0.049 0.306 -0.041 Q 0.323 -0.031 0.387 -0.031 L 0.419 -0.031 L 0.419 0 Q 0.384 -0.003 0.257 -0.003 Q 0.13 -0.003 0.095 0 L 0.095 -0.031 L 0.127 -0.031 Q 0.20400000000000001 -0.031 0.215 -0.049 L 0.216 -0.05 Q 0.22 -0.058 0.22 -0.079 L 0.22 -0.597 Q 0.168 -0.5710000000000001 0.089 -0.5710000000000001 L 0.089 -0.602 Q 0.209 -0.602 0.271 -0.666 Q 0.29 -0.666 0.293 -0.659 L 0.293 -0.659 L 0.293 -0.658 Q 0.294 -0.655 0.294 -0.64 Z"/></g><g transform="translate(46.62133713221313,21.147251672727272)"><path fill="rgb(102,0,204)" stroke="none" paint-order="stroke fill markers" d=" M 0.687 -0.327 L 0.09 -0.327 Q 0.058 -0.327 0.056 -0.34700000000000003 Q 0.056 -0.367 0.089 -0.367 L 0.6880000000000001 -0.367 Q 0.72 -0.367 0.721 -0.34700000000000003 Q 0.721 -0.327 0.687 -0.327 M 0.6880000000000001 -0.133 L 0.089 -0.133 Q 0.057 -0.133 0.056 -0.153 Q 0.056 -0.17300000000000001 0.09 -0.17300000000000001 L 0.687 -0.17300000000000001 Q 0.719 -0.17300000000000001 0.721 -0.153 Q 0.721 -0.133 0.6880000000000001 -0.133 Z"/></g><g transform="translate(47.677114909990905,21.147251672727272)"><path fill="rgb(102,0,204)" stroke="none" paint-order="stroke fill markers" d=" M 0.294 -0.64 L 0.294 -0.079 Q 0.294 -0.049 0.306 -0.041 Q 0.323 -0.031 0.387 -0.031 L 0.419 -0.031 L 0.419 0 Q 0.384 -0.003 0.257 -0.003 Q 0.13 -0.003 0.095 0 L 0.095 -0.031 L 0.127 -0.031 Q 0.20400000000000001 -0.031 0.215 -0.049 L 0.216 -0.05 Q 0.22 -0.058 0.22 -0.079 L 0.22 -0.597 Q 0.168 -0.5710000000000001 0.089 -0.5710000000000001 L 0.089 -0.602 Q 0.209 -0.602 0.271 -0.666 Q 0.29 -0.666 0.293 -0.659 L 0.293 -0.659 L 0.293 -0.658 Q 0.294 -0.655 0.294 -0.64 Z"/></g></g><g transform="scale(25,25)"><g transform="translate(9.68,14.003)"><path fill="rgb(0,102,51)" stroke="none" paint-order="stroke fill markers" d=" M 0.372 -0.326 L 0.121 -0.042 L 0.397 -0.042 Q 0.523 -0.042 0.5710000000000001 -0.077 Q 0.616 -0.109 0.633 -0.187 Q 0.637 -0.209 0.64 -0.23600000000000002 L 0.665 -0.23600000000000002 L 0.637 0 L 0.082 0 Q 0.059000000000000004 0 0.057 -0.011 Q 0.057 -0.016 0.067 -0.027 L 0.305 -0.298 L 0.056 -0.66 Q 0.056 -0.679 0.063 -0.682 Q 0.065 -0.683 0.07 -0.683 L 0.07100000000000001 -0.683 L 0.082 -0.683 L 0.637 -0.683 L 0.665 -0.458 L 0.64 -0.458 Q 0.625 -0.5750000000000001 0.5760000000000001 -0.614 L 0.5760000000000001 -0.614 L 0.5750000000000001 -0.615 L 0.5750000000000001 -0.615 L 0.5740000000000001 -0.615 L 0.5730000000000001 -0.616 L 0.5730000000000001 -0.616 Q 0.525 -0.652 0.4 -0.652 L 0.169 -0.652 L 0.374 -0.356 Q 0.381 -0.34700000000000003 0.381 -0.342 Q 0.381 -0.336 0.372 -0.326 Z"/></g></g></g></g></svg>