<?xml version="1.0" encoding="UTF-8" standalone="no"?>
<!-- Created with Inkscape (http://www.inkscape.org/) -->

<svg
   xmlns:dc="http://purl.org/dc/elements/1.1/"
   xmlns:cc="http://creativecommons.org/ns#"
   xmlns:rdf="http://www.w3.org/1999/02/22-rdf-syntax-ns#"
   xmlns:svg="http://www.w3.org/2000/svg"
   xmlns="http://www.w3.org/2000/svg"
   xmlns:xlink="http://www.w3.org/1999/xlink"
   xmlns:sodipodi="http://sodipodi.sourceforge.net/DTD/sodipodi-0.dtd"
   xmlns:inkscape="http://www.inkscape.org/namespaces/inkscape"
   width="28.178675"
   height="50.554234"
   viewBox="0 0 7.4556077 13.375808"
   version="1.1"
   id="svg8"
   inkscape:version="0.92.2 2405546, 2018-03-11"
   sodipodi:docname="bulp.svg">
  <defs
     id="defs2">
    <linearGradient
       inkscape:collect="always"
       id="linearGradient1360">
      <stop
         style="stop-color:#000000;stop-opacity:1"
         offset="0"
         id="stop1356" />
      <stop
         style="stop-color:#d0bfac;stop-opacity:0;"
         offset="1"
         id="stop1358" />
    </linearGradient>
    <linearGradient
       inkscape:collect="always"
       id="linearGradient1050">
      <stop
         style="stop-color:#ffd543;stop-opacity:1"
         offset="0"
         id="stop1046" />
      <stop
         style="stop-color:#ffeca9;stop-opacity:1"
         offset="1"
         id="stop1048" />
    </linearGradient>
    <linearGradient
       inkscape:collect="always"
       id="linearGradient1014">
      <stop
         style="stop-color:#ffffff;stop-opacity:1"
         offset="0"
         id="stop1010" />
      <stop
         style="stop-color:#ffffff;stop-opacity:0"
         offset="1"
         id="stop1012" />
    </linearGradient>
    <linearGradient
       inkscape:collect="always"
       id="linearGradient1006">
      <stop
         style="stop-color:#ffc803;stop-opacity:1;"
         offset="0"
         id="stop1002" />
      <stop
         style="stop-color:#ffc803;stop-opacity:0;"
         offset="1"
         id="stop1004" />
    </linearGradient>
    <linearGradient
       inkscape:collect="always"
       id="linearGradient947">
      <stop
         style="stop-color:#666666;stop-opacity:1"
         offset="0"
         id="stop943" />
      <stop
         style="stop-color:#ffffff;stop-opacity:1"
         offset="1"
         id="stop945" />
    </linearGradient>
    <linearGradient
       id="linearGradient910"
       inkscape:collect="always">
      <stop
         id="stop914"
         offset="0"
         style="stop-color:#666666;stop-opacity:1" />
      <stop
         id="stop916"
         offset="1"
         style="stop-color:#ffffff;stop-opacity:1" />
    </linearGradient>
    <linearGradient
       id="linearGradient902"
       inkscape:collect="always">
      <stop
         id="stop898"
         offset="0"
         style="stop-color:#ffffff;stop-opacity:1" />
      <stop
         id="stop900"
         offset="1"
         style="stop-color:#729fcf;stop-opacity:0" />
    </linearGradient>
    <linearGradient
       inkscape:collect="always"
       id="linearGradient5247">
      <stop
         style="stop-color:#ffffff;stop-opacity:0.33725491"
         offset="0"
         id="stop5243" />
      <stop
         style="stop-color:#729fcf;stop-opacity:0.89019608"
         offset="1"
         id="stop5245" />
    </linearGradient>
    <linearGradient
       inkscape:collect="always"
       id="linearGradient5174-3-5">
      <stop
         style="stop-color:#729fcf;stop-opacity:1"
         offset="0"
         id="stop5170" />
      <stop
         style="stop-color:#3465a4;stop-opacity:1"
         offset="1"
         id="stop5172" />
    </linearGradient>
    <linearGradient
       inkscape:collect="always"
       xlink:href="#linearGradient5174-3-5"
       id="linearGradient5183"
       gradientUnits="userSpaceOnUse"
       x1="2.619839"
       y1="285.02728"
       x2="9.2249899"
       y2="294.08957"
       spreadMethod="pad"
       gradientTransform="translate(0.15131737,-0.18875333)" />
    <radialGradient
       inkscape:collect="always"
       xlink:href="#linearGradient5247"
       id="radialGradient830"
       gradientUnits="userSpaceOnUse"
       gradientTransform="matrix(1.1606451,-0.00422278,0.00612736,1.6841168,-2.6520509,-198.19374)"
       cx="6.6097946"
       cy="289.63141"
       fx="6.6097946"
       fy="289.63141"
       r="3.7043831" />
    <linearGradient
       inkscape:collect="always"
       xlink:href="#linearGradient902"
       id="linearGradient896"
       x1="4.1642394"
       y1="285.8299"
       x2="14.224544"
       y2="294.28735"
       gradientUnits="userSpaceOnUse"
       gradientTransform="translate(0.15131737,-0.18875333)" />
    <linearGradient
       inkscape:collect="always"
       xlink:href="#linearGradient947"
       id="linearGradient912"
       x1="6.9576564"
       y1="292.08893"
       x2="6.9519434"
       y2="289.09885"
       gradientUnits="userSpaceOnUse"
       gradientTransform="translate(-0.06583912,-0.67317936)" />
    <linearGradient
       gradientTransform="translate(-2.6982413,-0.72622476)"
       inkscape:collect="always"
       xlink:href="#linearGradient910"
       id="linearGradient912-9"
       x1="9.2628565"
       y1="292.08893"
       x2="9.2404385"
       y2="289.16565"
       gradientUnits="userSpaceOnUse" />
    <linearGradient
       gradientTransform="translate(0.1513174,-0.1887646)"
       inkscape:collect="always"
       xlink:href="#linearGradient5174-3-5"
       id="linearGradient5183-6"
       gradientUnits="userSpaceOnUse"
       x1="2.619839"
       y1="285.02728"
       x2="9.2249899"
       y2="294.08957"
       spreadMethod="pad" />
    <radialGradient
       inkscape:collect="always"
       xlink:href="#linearGradient1006"
       id="radialGradient1008"
       cx="6.3594494"
       cy="289.40945"
       fx="6.3594494"
       fy="289.40945"
       r="3.7043834"
       gradientTransform="matrix(1,0,0,1.3053919,0.15131737,-88.57206)"
       gradientUnits="userSpaceOnUse" />
    <linearGradient
       inkscape:collect="always"
       xlink:href="#linearGradient1014"
       id="linearGradient1016"
       x1="6.2698145"
       y1="292.55371"
       x2="6.9536572"
       y2="292.55371"
       gradientUnits="userSpaceOnUse"
       spreadMethod="reflect"
       gradientTransform="translate(0.15131737,-0.18875333)" />
    <linearGradient
       inkscape:collect="always"
       xlink:href="#linearGradient1050"
       id="linearGradient1052"
       x1="5.3449802"
       y1="294.75415"
       x2="7.0129514"
       y2="294.77084"
       gradientUnits="userSpaceOnUse"
       spreadMethod="reflect"
       gradientTransform="translate(0.15131737,-0.18875333)" />
    <radialGradient
       inkscape:collect="always"
       xlink:href="#linearGradient1360"
       id="radialGradient1362"
       cx="6.5192394"
       cy="297.08096"
       fx="6.5192394"
       fy="297.08096"
       r="3.5914342"
       gradientTransform="matrix(1,0,0,0.24186046,0.15131737,225.04007)"
       gradientUnits="userSpaceOnUse" />
  </defs>
  <sodipodi:namedview
     id="base"
     pagecolor="#ffffff"
     bordercolor="#666666"
     borderopacity="1.0"
     inkscape:pageopacity="0.0"
     inkscape:pageshadow="2"
     inkscape:zoom="15.839192"
     inkscape:cx="13.393196"
     inkscape:cy="23.875261"
     inkscape:document-units="mm"
     inkscape:current-layer="layer1"
     showgrid="true"
     units="px"
     inkscape:window-width="1916"
     inkscape:window-height="1042"
     inkscape:window-x="0"
     inkscape:window-y="18"
     inkscape:window-maximized="0"
     gridtolerance="1"
     objecttolerance="1"
     guidetolerance="1">
    <inkscape:grid
       type="xygrid"
       id="grid1366"
       originx="-2.8063836"
       originy="0.76083787"
       enabled="false" />
  </sodipodi:namedview>
  <metadata
     id="metadata5">
    <rdf:RDF>
      <cc:Work
         rdf:about="">
        <dc:format>image/svg+xml</dc:format>
        <dc:type
           rdf:resource="http://purl.org/dc/dcmitype/StillImage" />
        <dc:title></dc:title>
      </cc:Work>
    </rdf:RDF>
  </metadata>
  <g
     inkscape:label="Layer 1"
     inkscape:groupmode="layer"
     id="layer1"
     transform="translate(-2.8063836,-284.38503)">
    <ellipse
       style="opacity:0.40500004;fill:url(#radialGradient1362);fill-opacity:1;stroke:none;stroke-width:0.26499999;stroke-linecap:butt;stroke-linejoin:miter;stroke-miterlimit:4;stroke-dasharray:none;stroke-dashoffset:0;stroke-opacity:1;paint-order:normal"
       id="path1354"
       cx="6.670557"
       cy="296.89221"
       rx="3.5914342"
       ry="0.86862594" />
    <path
       style="fill:#d0bfac;fill-opacity:1;stroke:#5a5249;stroke-width:0.26458332px;stroke-linecap:butt;stroke-linejoin:miter;stroke-opacity:1"
       d="m 5.825685,296.16396 c 0.012268,0.89089 1.5756882,0.90586 1.5874999,0.0167 l -0.6152058,-0.008 z"
       id="path1352"
       inkscape:connector-curvature="0"
       sodipodi:nodetypes="cccc" />
    <path
       style="opacity:1;fill:#ffffff;fill-opacity:1;stroke:#d59600;stroke-width:0.26499999;stroke-linecap:round;stroke-linejoin:round;stroke-miterlimit:4;stroke-dasharray:none;stroke-dashoffset:0;stroke-opacity:1"
       d="m 4.7780106,293.24525 c 1.0798959,-0.85192 2.5738047,-0.75169 3.5753901,-0.0334 -0.026449,0.15983 -0.1352227,0.61795 -0.5291666,0.88517 0.6947203,0.23374 0.7560673,0.66794 0.1073797,1.10215 0.6863703,0.2171 0.5606683,0.6769 -0.1073797,0.98538 -0.9184108,0.42408 -1.4162468,0.36212 -2.5450954,-0.0516 -0.4480864,-0.16422 -0.7210709,-0.67339 0.012528,-0.98503 -0.6424329,-0.40323 -0.6424329,-0.76803 -0.025054,-1.08273 -0.3527953,-0.19471 -0.4760738,-0.55841 -0.4886021,-0.81994 z"
       id="rect1028"
       inkscape:connector-curvature="0"
       sodipodi:nodetypes="ccccssccc" />
    <path
       style="opacity:1;fill:url(#linearGradient1052);fill-opacity:1;stroke:none;stroke-width:0.26499999;stroke-linecap:round;stroke-linejoin:round;stroke-miterlimit:4;stroke-dasharray:none;stroke-dashoffset:0;stroke-opacity:1"
       d="m 4.8615322,293.27866 c 1.079896,-0.85192 2.3566483,-0.75169 3.3582338,-0.0334 -0.02645,0.15983 -0.101814,0.58454 -0.495758,0.85176 0.6947204,0.23374 0.7489136,0.69252 0.1002261,1.12673 0.6863702,0.2171 0.5386242,0.68569 -0.1503391,0.9441 -0.9079943,0.34056 -1.1725776,0.25448 -2.2945303,-0.085 -0.4567796,-0.13821 -0.7043666,-0.63998 0.029232,-0.95162 -0.6424329,-0.40323 -0.6090242,-0.73463 0.00835,-1.04933 -0.3527952,-0.19471 -0.5428912,-0.5417 -0.5554195,-0.80323 z"
       id="rect1028-6"
       inkscape:connector-curvature="0"
       sodipodi:nodetypes="ccccsscccc" />
    <path
       id="path5073"
       style="fill:url(#radialGradient830);fill-opacity:1;stroke:url(#linearGradient5183);stroke-width:0.26499999;stroke-linecap:butt;stroke-linejoin:miter;stroke-miterlimit:4;stroke-dasharray:none;stroke-opacity:1"
       d="m 8.6534193,292.66062 c -0.1249677,0.4354 -0.4417596,0.79102 -0.7630395,0.95203 -0.6543712,0.39722 -1.9843726,0.42402 -2.7119791,0.0236 -0.2645833,-0.12875 -0.5880185,-0.5569 -0.706343,-0.91187 -0.2645833,-0.79375 -0.099219,-1.5875 -0.7141515,-2.36249 -0.5457417,-0.70533 -0.8190219,-1.45699 -0.8190226,-2.27247 -3.8e-6,-1.9727 1.5991839,-3.57189 3.5718832,-3.57189 1.9726993,0 3.5718872,1.59919 3.5718832,3.57189 -10e-7,0.78549 -0.1944933,1.45271 -0.7170173,2.15633 -0.5736256,0.86373 -0.4830653,1.6165 -0.7122134,2.41487 z"
       inkscape:connector-curvature="0"
       sodipodi:nodetypes="ccccccsccc" />
    <path
       id="path5073-6"
       style="opacity:0.75099996;fill:none;fill-opacity:1;stroke:url(#linearGradient896);stroke-width:0.26499999;stroke-linecap:butt;stroke-linejoin:miter;stroke-miterlimit:4;stroke-dasharray:none;stroke-opacity:1"
       d="m 8.428996,292.5425 c -0.1249677,0.4354 -0.3987084,0.68231 -0.7129264,0.8567 -0.586691,0.32561 -1.7544369,0.34399 -2.3806565,0.005 -0.2587419,-0.14012 -0.5570974,-0.48656 -0.6521768,-0.80759 -0.2380722,-0.80384 -0.076783,-1.62482 -0.7418282,-2.41652 -0.4789243,-0.73874 -0.777779,-1.28524 -0.7426659,-2.09996 0.081859,-1.89937 1.4953233,-3.29625 3.2884013,-3.31442 1.7930779,-0.0182 3.3071357,1.40758 3.3238363,3.2884 -8e-7,0.78549 -0.1413051,1.31933 -0.6638291,2.02295 -0.5736257,0.86373 -0.5474719,1.6672 -0.7181547,2.46557 z"
       inkscape:connector-curvature="0"
       sodipodi:nodetypes="cssscszccc" />
    <path
       style="fill:none;stroke:url(#linearGradient912);stroke-width:0.26499999;stroke-linecap:round;stroke-linejoin:round;stroke-miterlimit:4;stroke-dasharray:none;stroke-opacity:1"
       d="m 7.0836205,290.74758 0.7880403,-2.27179"
       id="path904"
       inkscape:connector-curvature="0" />
    <path
       style="fill:none;stroke:url(#linearGradient912-9);stroke-width:0.26458332px;stroke-linecap:round;stroke-linejoin:miter;stroke-opacity:1"
       d="M 6.1383572,290.76135 5.2392586,288.42274"
       id="path904-7"
       inkscape:connector-curvature="0"
       sodipodi:nodetypes="cc" />
    <path
       style="fill:none;stroke:#ffffff;stroke-width:0.26458332px;stroke-linecap:butt;stroke-linejoin:miter;stroke-opacity:1"
       d="m 5.2392585,288.42274 c 0.2529991,-0.0896 0.5577425,-0.11323 0.6994835,-0.3849 0.4724702,0.27167 0.8646205,0.24804 1.1126672,2e-5 0.3071057,0.21261 0.8202516,0.43795 0.8202516,0.43795"
       id="path949"
       inkscape:connector-curvature="0"
       sodipodi:nodetypes="cccc" />
    <path
       style="opacity:0.50199998;fill:url(#linearGradient1016);fill-opacity:1;stroke:#b3b3b3;stroke-width:0.26458332px;stroke-linecap:butt;stroke-linejoin:miter;stroke-opacity:1"
       d="m 5.6354316,293.74166 -0.033409,-2.66772 c 0.6545476,-0.58113 1.5320506,-0.49223 2.0552454,0.003 l -0.014096,2.74453"
       id="path953"
       inkscape:connector-curvature="0"
       sodipodi:nodetypes="cccc" />
    <path
       id="path5073-2"
       style="opacity:0.26400003;fill:url(#radialGradient1008);fill-opacity:1;stroke:url(#linearGradient5183-6);stroke-width:0.26499999;stroke-linecap:butt;stroke-linejoin:miter;stroke-miterlimit:4;stroke-dasharray:none;stroke-opacity:1"
       d="m 8.6534194,292.66062 c -0.1249677,0.4354 -0.4417597,0.79102 -0.7630395,0.95203 -0.6543712,0.39722 -1.9843727,0.42402 -2.7119792,0.0236 -0.2645833,-0.12875 -0.5880185,-0.5569 -0.706343,-0.91187 -0.2645833,-0.79375 -0.099219,-1.5875 -0.7141515,-2.36249 -0.5457417,-0.70533 -0.8190219,-1.45699 -0.8190226,-2.27247 -3.8e-6,-1.9727 1.5991839,-3.57189 3.5718834,-3.57189 1.9726992,0 3.571887,1.59919 3.571883,3.57189 -10e-7,0.78549 -0.1944932,1.45271 -0.7170172,2.15633 -0.5736257,0.86373 -0.4830654,1.6165 -0.7122134,2.41487 z"
       inkscape:connector-curvature="0"
       sodipodi:nodetypes="ccccccsccc" />
    <ellipse
       style="opacity:0.37000002;fill:#ffffff;fill-opacity:1;stroke:none;stroke-width:0.26499999;stroke-linecap:round;stroke-linejoin:round;stroke-miterlimit:4;stroke-dasharray:none;stroke-dashoffset:0;stroke-opacity:1"
       id="path1018"
       transform="rotate(-29.368426)"
       ry="1.3964916"
       rx="1.7930969"
       cy="252.75397"
       cx="-135.71796" />
    <path
       style="fill:#d59600;fill-opacity:1;stroke:none;stroke-width:0.26458332px;stroke-linecap:butt;stroke-linejoin:miter;stroke-opacity:1"
       d="m 5.379255,294.15426 c 0.093076,0.61549 0.8421232,0.67224 2.4449791,1.05279 0,0 -1.2802562,-0.47508 -1.8987543,-0.76259 -0.1869635,-0.0869 -0.5462248,-0.2902 -0.5462248,-0.2902 z"
       id="path1320"
       inkscape:connector-curvature="0"
       sodipodi:nodetypes="ccac" />
    <path
       style="fill:#d59600;fill-opacity:1;stroke:none;stroke-width:0.26458332px;stroke-linecap:butt;stroke-linejoin:miter;stroke-opacity:1"
       d="m 5.4429841,295.08948 c 0.093076,0.61549 1.0928731,0.61377 2.4785725,0.90244 0,0 -1.3644305,-0.35706 -2.008496,-0.6373 -0.1649599,-0.0718 -0.4700765,-0.26514 -0.4700765,-0.26514 z"
       id="path1320-8"
       inkscape:connector-curvature="0"
       sodipodi:nodetypes="ccac" />
  </g>
</svg>
